<?xml version="1.0" standalone="no"?>
<!DOCTYPE svg PUBLIC "-//W3C//DTD SVG 20010904//EN"
 "http://www.w3.org/TR/2001/REC-SVG-20010904/DTD/svg10.dtd">
<svg version="1.0" xmlns="http://www.w3.org/2000/svg"
 width="999.000000pt" height="999.000000pt" viewBox="0 0 999.000000 999.000000"
 preserveAspectRatio="xMidYMid meet">
<metadata>
Created by potrace 1.14, written by Peter Selinger 2001-2017
</metadata>
<g transform="translate(0.000000,999.000000) scale(0.100000,-0.100000)"
fill="#000000" stroke="none">
<path d="M254 5898 l-24 -19 0 -898 c0 -880 0 -899 20 -923 l19 -25 671 0 671
0 20 21 c21 22 21 26 21 727 -1 387 -1 729 -1 759 l-1 55 -159 161 -160 161
-526 0 c-501 0 -528 -1 -551 -19z m983 -107 c8 -1 11 -33 11 -103 0 -57 0
-115 1 -129 2 -42 36 -53 166 -53 l115 0 0 -675 0 -676 -588 0 -587 1 -1 814
c0 448 0 817 2 820 2 4 828 5 881 1z m173 -126 l34 -35 -37 0 c-36 0 -37 1
-37 35 0 19 1 35 3 35 2 0 18 -16 37 -35z"/>
<path d="M671 5499 c-68 -27 -69 -112 -1 -149 45 -24 112 26 108 81 -4 51 -60
87 -107 68z"/>
<path d="M976 5335 c-10 -5 -24 -23 -29 -39 -9 -26 -6 -32 17 -53 26 -22 33
-23 216 -23 182 0 190 1 210 22 25 27 25 49 2 79 -18 22 -24 22 -207 23 -108
1 -197 -3 -209 -9z"/>
<path d="M614 5306 c-41 -18 -74 -62 -74 -97 l0 -29 161 0 160 0 -4 29 c-12
75 -62 111 -152 111 -33 -1 -74 -7 -91 -14z"/>
<path d="M508 5045 c-32 -16 -39 -48 -18 -82 l18 -30 426 0 c413 -1 427 0 452
20 21 16 25 25 20 51 -4 17 -14 35 -24 41 -24 14 -847 15 -874 0z"/>
<path d="M503 4758 c-43 -21 -33 -90 16 -105 14 -5 212 -8 440 -7 l414 1 19
23 c23 29 23 55 -2 80 -19 19 -33 20 -442 19 -273 0 -431 -4 -445 -11z"/>
<path d="M519 4480 c-13 -3 -28 -19 -36 -37 -11 -28 -10 -34 8 -57 l20 -26
430 0 c416 0 430 1 449 20 25 25 25 51 1 81 l-18 23 -416 0 c-229 1 -426 -1
-438 -4z"/>
<path d="M2418 5915 c-2 -2 -35 -5 -73 -9 -39 -4 -93 -12 -120 -19 l-50 -12 0
-562 0 -563 100 0 101 0 -1 501 c0 322 4 504 10 509 6 4 55 8 110 8 91 1 105
-2 149 -26 174 -96 136 -333 -59 -368 -55 -9 -91 -32 -120 -76 -22 -32 -31
-57 -22 -58 1 -1 36 -3 77 -7 49 -3 84 -12 101 -23 39 -28 75 -105 114 -241
20 -68 43 -145 51 -171 l16 -48 104 0 c57 0 104 1 104 3 0 2 -8 21 -18 43 -11
21 -29 77 -42 124 -51 191 -85 265 -147 320 l-44 39 36 17 c66 31 134 112 154
183 48 169 -44 336 -219 400 -14 5 -27 9 -30 9 -3 0 -18 6 -35 12 -25 10 -238
22 -247 15z"/>
<path d="M4417 5914 c-1 -1 -20 -5 -42 -8 -51 -8 -131 -47 -169 -82 -49 -47
-80 -128 -78 -207 4 -140 79 -231 274 -331 168 -86 242 -149 252 -214 27 -174
-165 -245 -423 -157 -49 16 -71 20 -74 12 -3 -7 -14 -36 -26 -64 l-21 -53 38
-16 c122 -51 306 -75 416 -55 116 21 214 89 258 180 18 36 23 63 23 126 -1
159 -75 242 -354 394 -131 71 -182 129 -177 203 4 60 49 112 107 123 62 13
180 4 265 -20 19 -6 40 8 44 30 1 6 8 25 16 44 19 46 18 50 -13 57 -16 3 -37
9 -48 12 -59 17 -256 37 -268 26z"/>
<path d="M8867 5914 c-2 -1 -50 -9 -127 -19 -14 -2 -34 -4 -45 -4 -49 -3 -48
15 -47 -517 0 -275 1 -527 1 -561 l1 -63 98 0 98 0 0 493 c-1 270 2 499 6 509
7 13 24 16 115 15 95 -2 113 -5 153 -27 24 -14 58 -45 75 -68 26 -38 30 -53
30 -105 0 -50 -6 -69 -26 -99 -35 -52 -69 -76 -125 -89 -64 -15 -95 -30 -117
-54 -21 -24 -50 -75 -45 -80 6 -6 62 -13 112 -14 42 -1 53 -6 83 -37 18 -20
41 -52 49 -73 18 -41 84 -256 88 -286 2 -11 10 -35 20 -52 l17 -33 98 0 99 0
-27 78 c-15 42 -28 80 -29 85 -25 121 -81 262 -122 305 -11 12 -32 30 -46 39
l-26 17 35 17 c71 37 148 133 163 203 3 11 5 50 5 85 0 88 -42 176 -113 232
-52 41 -116 74 -159 83 -13 3 -35 8 -49 11 -23 6 -237 14 -243 9z"/>
<path d="M3241 5890 c-4 -3 -7 -260 -6 -572 l0 -568 351 0 351 0 1 70 c0 59
-2 70 -16 71 -9 1 -118 2 -242 4 -124 1 -230 3 -235 4 -7 1 -10 145 -11 426 0
420 1 425 21 426 11 0 118 0 237 1 155 0 218 3 220 11 3 11 3 45 -1 112 -1 20
-8 20 -332 20 -182 0 -334 -2 -338 -5z"/>
<path d="M5061 5892 c-15 -5 -15 -720 0 -811 23 -133 101 -249 205 -301 27
-13 54 -25 59 -26 6 -1 32 -7 59 -14 62 -14 185 -11 248 6 150 39 258 149 299
304 11 42 23 790 13 830 -3 13 -21 15 -93 15 -50 0 -92 -3 -95 -6 -3 -3 -6
-186 -6 -407 -1 -377 -2 -405 -21 -448 -29 -69 -55 -101 -106 -131 -39 -22
-58 -27 -122 -27 -65 0 -83 4 -121 26 -70 41 -110 99 -126 184 -4 21 -7 211
-7 421 0 211 -3 384 -6 384 -17 4 -170 4 -180 1z"/>
<path d="M6289 5895 c-2 -1 -8 -45 -14 -108 -4 -39 -9 -83 -10 -97 -1 -14 -5
-52 -9 -85 -4 -33 -9 -82 -11 -110 -11 -114 -18 -180 -30 -285 -2 -19 -7 -62
-10 -95 -3 -33 -8 -82 -11 -110 -7 -66 -13 -127 -19 -197 l-5 -58 90 0 c50 0
90 3 91 8 4 27 7 69 13 152 4 52 9 115 11 140 3 25 7 72 10 105 2 33 7 101 10
150 4 50 8 106 10 125 4 45 18 220 19 242 0 20 16 13 16 -7 0 -8 20 -76 44
-152 24 -76 72 -226 106 -333 34 -107 78 -244 98 -305 l37 -110 98 0 98 0 13
45 c20 63 61 192 161 510 48 151 92 294 98 318 11 45 25 57 24 20 0 -13 3 -59
7 -103 4 -44 9 -109 12 -143 2 -35 6 -85 9 -110 2 -26 7 -81 10 -122 13 -161
26 -315 30 -360 2 -14 3 -35 4 -47 1 -22 4 -23 97 -23 52 0 93 3 91 8 -3 4 -8
43 -12 86 -4 43 -9 88 -11 100 -2 12 -6 53 -9 91 -2 39 -6 79 -9 90 -2 11 -7
56 -11 100 -3 44 -9 98 -11 120 -2 22 -6 63 -9 90 -5 53 -13 125 -20 190 -2
22 -7 72 -10 110 -4 39 -9 87 -11 108 -2 21 -5 41 -8 45 -4 6 -215 9 -247 3
-4 -1 -12 -22 -19 -48 -7 -27 -14 -52 -16 -58 -12 -45 -147 -481 -150 -487 -3
-4 -7 -16 -9 -27 -2 -10 -18 -65 -35 -122 -18 -57 -37 -124 -42 -149 -12 -48
-13 -47 -36 30 -6 19 -24 78 -40 130 -17 52 -60 196 -98 320 -37 124 -81 268
-98 320 l-31 95 -122 0 c-68 0 -123 0 -124 0z"/>
<path d="M7729 5895 c-1 0 -3 -258 -3 -572 l-2 -573 351 0 351 0 -2 68 c-1 37
-2 69 -3 72 0 3 -112 5 -248 5 l-248 0 -1 428 -1 427 26 1 c14 0 122 0 239 0
131 0 212 3 213 9 1 13 1 83 0 113 l-1 22 -335 0 c-184 0 -336 0 -336 0z"/>
<path d="M3585 5405 c-31 -15 -85 -87 -85 -112 0 -10 39 -13 180 -13 l180 0 0
70 0 70 -122 0 c-89 0 -131 -5 -153 -15z"/>
<path d="M8068 5402 c-31 -20 -59 -55 -76 -94 l-12 -28 184 0 183 0 0 70 -1
70 -125 0 c-104 0 -131 -3 -153 -18z"/>
<path d="M4389 4468 c-5 -13 -3 -411 2 -419 3 -6 15 -9 25 -7 18 3 19 16 19
213 l0 210 -22 3 c-13 2 -24 2 -24 0z"/>
<path d="M8508 4463 c-4 -7 -3 -393 1 -416 0 -5 11 -7 24 -5 l22 3 0 210 c0
207 0 210 -22 213 -11 2 -23 0 -25 -5z"/>
<path d="M8839 4468 c-1 -2 -2 -79 -3 -173 0 -93 -6 -177 -11 -186 -15 -23
-66 -38 -92 -26 -40 18 -59 101 -36 157 15 37 34 52 72 56 13 2 29 8 34 13 32
32 -67 34 -112 2 -61 -44 -78 -129 -41 -205 31 -64 108 -89 164 -52 21 13 25
13 39 -1 8 -9 21 -13 29 -11 10 4 12 48 10 217 l-3 211 -24 0 c-14 0 -25 -1
-26 -2z"/>
<path d="M3695 4440 c-75 -35 -115 -101 -116 -194 -2 -129 94 -227 209 -211
68 9 113 42 150 110 24 43 22 158 -3 210 -22 47 -36 59 -90 85 -50 25 -99 25
-150 0z m143 -46 c55 -36 77 -152 45 -234 -32 -80 -118 -110 -182 -62 -73 54
-85 201 -22 276 38 45 107 54 159 20z"/>
<path d="M5495 4451 l-30 -6 -1 -190 c0 -105 2 -196 4 -202 2 -7 14 -13 27
-13 l23 0 0 179 c0 99 3 184 6 189 11 19 96 5 122 -19 34 -31 32 -81 -2 -108
-15 -12 -35 -21 -44 -21 -10 0 -28 -9 -41 -20 l-24 -19 36 -1 c42 0 69 -26 88
-85 27 -86 33 -95 57 -95 28 0 29 2 8 66 -23 71 -44 114 -54 114 -17 0 -11 18
8 25 21 6 43 46 48 88 11 89 -101 146 -231 118z"/>
<path d="M7703 4452 c-18 -2 -33 -6 -34 -10 0 -4 -1 -96 -2 -205 l-2 -197 27
0 27 0 3 98 3 97 42 1 c52 1 110 -22 118 -46 14 -43 12 -58 -9 -84 -17 -21
-30 -28 -58 -28 -37 0 -79 -21 -66 -33 3 -4 26 -8 50 -10 83 -7 148 49 148
127 0 30 -7 44 -37 73 -20 19 -31 35 -26 35 17 0 44 67 39 96 -14 73 -82 100
-223 86z m144 -57 c29 -19 31 -67 3 -95 -21 -21 -23 -22 -87 -24 l-43 -2 0 67
c0 45 4 69 13 72 22 8 91 -3 114 -18z"/>
<path d="M2182 4443 c3 -4 35 -58 72 -119 58 -96 67 -117 65 -155 -1 -24 -1
-63 0 -86 1 -39 3 -43 26 -43 25 0 25 0 25 98 l0 97 -64 105 c-58 95 -67 105
-96 108 -18 2 -30 0 -28 -5z"/>
<path d="M2442 4438 c-24 -30 -73 -139 -70 -154 7 -36 25 -20 76 66 28 48 52
91 52 94 0 11 -48 6 -58 -6z"/>
<path d="M4527 4443 c-12 -11 -8 -40 7 -52 16 -14 42 -5 50 16 11 29 -35 58
-57 36z"/>
<path d="M8355 4430 c-8 -25 10 -50 36 -50 22 0 35 36 19 55 -18 22 -48 18
-55 -5z"/>
<path d="M9509 4433 c-4 -83 4 -280 12 -287 23 -24 32 17 33 156 1 141 1 143
-21 146 -17 2 -23 -2 -24 -15z"/>
<path d="M2633 4320 c-65 -33 -94 -124 -65 -201 41 -106 204 -108 248 -3 57
135 -60 265 -183 204z m91 -31 c30 -14 49 -56 48 -108 -1 -50 -15 -77 -50 -95
-51 -26 -102 16 -106 86 -3 53 14 97 45 114 30 16 32 17 63 3z"/>
<path d="M2909 4330 c-12 -7 -15 -32 -14 -123 1 -157 25 -190 119 -163 50 14
47 30 -6 34 -24 2 -47 7 -51 11 -4 4 -8 60 -8 123 0 119 -6 137 -40 118z"/>
<path d="M3350 4332 c-14 -2 -35 -13 -46 -23 -21 -20 -21 -20 -27 0 -3 12 -13
21 -25 21 -18 0 -19 -7 -18 -142 l2 -143 25 0 c24 0 24 1 25 92 0 114 12 141
66 149 28 5 38 11 38 25 0 22 -8 26 -40 21z"/>
<path d="M4153 4327 c-18 -5 -33 -14 -33 -18 0 -12 45 -22 68 -15 36 12 45
-17 45 -139 l1 -115 27 0 26 0 0 118 c0 64 -4 127 -10 139 -16 36 -67 48 -124
30z"/>
<path d="M4544 4333 c-19 -4 -20 -10 -19 -146 l1 -142 27 -3 27 -3 0 145 c0
80 -3 146 -7 148 -5 2 -17 2 -29 1z"/>
<path d="M4800 4333 c-8 -3 -26 -10 -40 -15 -23 -9 -24 -10 -6 -20 10 -6 34
-8 53 -5 44 8 52 -11 51 -129 0 -129 -1 -124 27 -124 28 0 27 -8 27 136 1 109
-9 139 -48 154 -28 11 -41 11 -64 3z"/>
<path d="M5084 4329 c-59 -17 -93 -75 -89 -151 5 -85 60 -141 138 -141 57 1
98 18 91 38 -7 17 -7 17 -56 6 -65 -15 -109 20 -122 101 -6 38 29 105 61 113
25 6 73 -16 73 -34 0 -5 3 -16 6 -25 5 -13 -2 -16 -43 -16 -45 0 -73 -12 -73
-32 0 -4 36 -8 79 -8 87 0 93 4 84 61 -8 50 -21 69 -58 85 -38 16 -47 16 -91
3z"/>
<path d="M5891 4322 c-50 -25 -72 -61 -76 -120 -3 -65 25 -126 68 -149 57 -29
174 -13 161 22 -5 12 -14 14 -36 10 -81 -18 -117 0 -136 69 -21 74 9 130 75
142 19 3 53 -28 58 -53 4 -21 0 -23 -44 -23 -43 0 -71 -12 -71 -32 0 -4 36 -8
79 -8 87 0 93 5 84 61 -7 46 -29 76 -65 88 -42 15 -57 14 -97 -7z"/>
<path d="M6163 4325 c-20 -8 -35 -23 -39 -39 -12 -48 3 -74 61 -107 65 -36 80
-58 61 -84 -13 -18 -23 -19 -105 -12 -31 3 -38 -18 -11 -33 52 -28 148 -9 167
33 12 25 8 64 -8 83 -6 7 -35 27 -65 44 -37 20 -54 36 -54 50 0 26 30 40 72
34 26 -5 37 -2 41 10 8 19 2 23 -48 30 -24 3 -53 0 -72 -9z"/>
<path d="M6807 4327 c-39 -15 -27 -32 21 -31 52 2 56 -7 57 -146 l0 -105 28
-3 29 -3 -4 130 c-3 145 -9 159 -69 165 -19 2 -46 -1 -62 -7z"/>
<path d="M7005 4332 c-11 -2 -29 -10 -39 -18 -18 -12 -18 -13 7 -19 14 -4 34
-4 44 -1 40 12 48 -7 49 -124 1 -60 2 -114 3 -120 0 -5 12 -10 25 -10 23 0 25
5 28 48 5 84 -7 212 -23 227 -16 16 -64 25 -94 17z"/>
<path d="M7286 4330 c-41 -13 -63 -36 -78 -84 -15 -46 -15 -55 -5 -108 9 -44
65 -97 105 -99 49 -3 83 1 103 12 26 14 18 35 -12 32 -89 -7 -92 -7 -121 25
-58 66 -26 185 51 185 33 0 60 -24 61 -55 0 -15 -9 -18 -50 -18 -38 0 -52 -4
-59 -19 -10 -17 -5 -18 69 -20 72 -2 79 0 85 19 11 33 -3 85 -28 108 -26 25
-79 34 -121 22z"/>
<path d="M9065 4332 c-79 -26 -117 -127 -81 -213 26 -60 70 -85 146 -80 47 2
77 21 66 40 -7 11 -40 10 -52 -1 -8 -9 -56 1 -80 17 -39 25 -50 96 -26 157 13
30 19 35 56 42 32 6 66 -22 66 -54 0 -17 -7 -20 -43 -20 -40 0 -67 -13 -67
-32 0 -4 35 -8 79 -8 l79 0 4 29 c12 84 -66 149 -147 123z"/>
<path d="M9376 4315 c-33 -22 -34 -22 -39 -4 -3 11 -14 19 -25 19 -19 0 -20
-7 -18 -142 l2 -143 24 0 c23 0 24 2 26 98 1 86 4 101 24 122 12 13 34 25 49
27 18 2 26 9 26 22 0 27 -29 28 -69 1z"/>
<path d="M3079 4303 c-3 -117 2 -225 11 -243 15 -28 48 -27 45 3 -1 12 -3 77
-4 145 l-1 122 -25 0 c-20 0 -25 -5 -26 -27z"/>
<path d="M4046 4213 c2 -65 3 -130 3 -145 1 -23 6 -28 26 -28 28 0 27 -5 27
163 0 100 -9 127 -41 127 -15 0 -16 -14 -15 -117z"/>
<path d="M4665 4319 c4 -5 7 -71 8 -145 l1 -135 25 3 26 3 1 120 c2 140 -5
165 -41 165 -16 0 -24 -4 -20 -11z"/>
<path d="M6364 4204 c2 -124 2 -127 29 -149 19 -18 34 -22 58 -18 46 7 79 21
79 33 0 11 -14 13 -72 10 -43 -2 -40 -14 -41 148 l0 102 -27 0 -27 0 1 -126z"/>
<path d="M6547 4199 c2 -135 9 -159 44 -159 14 0 18 6 15 23 -3 12 -5 77 -5
145 l-1 122 -27 0 -28 0 2 -131z"/>
<path d="M6697 4314 c3 -8 6 -72 7 -142 l1 -127 25 0 25 0 1 125 c1 69 -3 133
-8 143 -11 22 -60 24 -51 1z"/>
<path d="M8020 4215 c0 -66 5 -125 12 -140 17 -38 68 -48 130 -23 38 14 25 28
-26 28 -24 0 -48 6 -53 13 -5 6 -9 63 -9 125 l1 112 -27 0 -28 0 0 -115z"/>
<path d="M8205 4208 c2 -138 8 -168 35 -168 17 0 19 10 18 145 l0 145 -27 0
-28 0 2 -122z"/>
<path d="M8359 4318 c-1 -18 -1 -206 0 -245 1 -28 5 -33 26 -33 27 0 26 -9 26
185 0 110 1 105 -26 105 -14 0 -25 -6 -26 -12z"/>
<path d="M9513 4093 c-18 -7 -16 -50 3 -57 25 -10 33 -7 44 15 18 33 -10 58
-47 42z"/>
</g>
</svg>
